<svg width="37" height="27" viewBox="0 0 37 27" fill="none" xmlns="http://www.w3.org/2000/svg">
<path d="M21.6129 9.80894V6.98264C22.5273 6.59471 23.4627 6.30377 24.4193 6.10981C25.3758 5.91584 26.3799 5.81886 27.4318 5.81886C28.1522 5.81886 28.8588 5.87428 29.5515 5.98512C30.2442 6.09595 30.9231 6.2345 31.5881 6.40075V9.0608C30.9231 8.81142 30.2509 8.62411 29.5714 8.49887C28.892 8.37362 28.1788 8.31155 27.4318 8.31266C26.3788 8.31266 25.3675 8.44455 24.3976 8.70834C23.4278 8.97213 22.4996 9.339 21.6129 9.80894ZM21.6129 18.9529V16.1266C22.5273 15.7386 23.4627 15.4477 24.4193 15.2537C25.3758 15.0598 26.3799 14.9628 27.4318 14.9628C28.1522 14.9628 28.8588 15.0182 29.5515 15.129C30.2442 15.2399 30.9231 15.3784 31.5881 15.5447V18.2047C30.9231 17.9553 30.2509 17.768 29.5714 17.6428C28.892 17.5175 28.1788 17.4555 27.4318 17.4566C26.3788 17.4566 25.3675 17.5813 24.3976 17.8307C23.4278 18.08 22.4996 18.4541 21.6129 18.9529ZM21.6129 14.3809V11.5546C22.5273 11.1667 23.4627 10.8757 24.4193 10.6818C25.3758 10.4878 26.3799 10.3908 27.4318 10.3908C28.1522 10.3908 28.8588 10.4462 29.5515 10.5571C30.2442 10.6679 30.9231 10.8065 31.5881 10.9727V13.6328C30.9231 13.3834 30.2509 13.1961 29.5714 13.0708C28.892 12.9456 28.1788 12.8835 27.4318 12.8846C26.3788 12.8846 25.3675 13.0165 24.3976 13.2803C23.4278 13.5441 22.4996 13.911 21.6129 14.3809ZM19.9504 21.696C21.1696 21.1141 22.3954 20.6775 23.6279 20.386C24.8604 20.0945 26.1283 19.9493 27.4318 19.9504C28.4293 19.9504 29.4063 20.0335 30.3628 20.1998C31.3193 20.366 32.2819 20.6154 33.2506 20.9479V4.48884C32.3362 4.10091 31.3869 3.80997 30.4027 3.61601C29.4185 3.42205 28.4282 3.32507 27.4318 3.32507C26.1294 3.32507 24.841 3.49132 23.5664 3.82383C22.2918 4.15633 21.0864 4.65509 19.9504 5.3201V21.696ZM18.2878 26.6005C16.9578 25.5476 15.517 24.7302 13.9653 24.1483C12.4136 23.5664 10.8065 23.2754 9.14392 23.2754C7.98015 23.2754 6.83688 23.4278 5.71412 23.7326C4.59136 24.0374 3.51792 24.4669 2.4938 25.0211C1.91191 25.3259 1.35108 25.312 0.811315 24.9795C0.271547 24.647 0.00110835 24.1621 0 23.5248V3.49132C0 3.18652 0.0764764 2.89558 0.229429 2.61849C0.382382 2.3414 0.610703 2.13359 0.914392 1.99504C2.21671 1.35774 3.55394 0.865629 4.92608 0.518715C6.29822 0.1718 7.70417 -0.00110306 9.14392 5.29469e-06C10.751 5.29469e-06 12.3238 0.207822 13.8622 0.623454C15.4006 1.03909 16.8758 1.66254 18.2878 2.4938C19.701 1.66254 21.1768 1.03909 22.7152 0.623454C24.2536 0.207822 25.8258 5.29469e-06 27.4318 5.29469e-06C28.8726 5.29469e-06 30.2791 0.173463 31.6513 0.520378C33.0234 0.867293 34.3601 1.35885 35.6613 1.99504C35.9661 2.13359 36.195 2.3414 36.3479 2.61849C36.5009 2.89558 36.5768 3.18652 36.5757 3.49132V23.5248C36.5757 24.1621 36.3058 24.647 35.766 24.9795C35.2263 25.312 34.6649 25.3259 34.0819 25.0211C33.0567 24.4669 31.9832 24.0374 30.8616 23.7326C29.7399 23.4278 28.5966 23.2754 27.4318 23.2754C25.7692 23.2754 24.1621 23.5664 22.6104 24.1483C21.0587 24.7302 19.6179 25.5476 18.2878 26.6005Z" fill="black"/>
</svg>
